<?xml version="1.0" encoding="UTF-8" standalone="no"?>
<!-- Created with Inkscape (http://www.inkscape.org/) -->

<svg
   xmlns:dc="http://purl.org/dc/elements/1.1/"
   xmlns:cc="http://creativecommons.org/ns#"
   xmlns:rdf="http://www.w3.org/1999/02/22-rdf-syntax-ns#"
   xmlns:svg="http://www.w3.org/2000/svg"
   xmlns="http://www.w3.org/2000/svg"
   xmlns:sodipodi="http://sodipodi.sourceforge.net/DTD/sodipodi-0.dtd"
   xmlns:inkscape="http://www.inkscape.org/namespaces/inkscape"
   version="1.1"
   width="32"
   height="32"
   viewBox="0 0 32 32"
   id="svg2"
   xml:space="preserve"
   inkscape:version="0.48.2 r9819"
   sodipodi:docname="favicon.svg.2013_04_26_09_01_21.0.svg"><sodipodi:namedview
   pagecolor="#ffffff"
   bordercolor="#666666"
   borderopacity="1"
   objecttolerance="10"
   gridtolerance="10"
   guidetolerance="10"
   inkscape:pageopacity="0"
   inkscape:pageshadow="2"
   inkscape:window-width="1436"
   inkscape:window-height="908"
   id="namedview8"
   showgrid="false"
   inkscape:zoom="10.503341"
   inkscape:cx="26.249508"
   inkscape:cy="7.4998595"
   inkscape:window-x="1492"
   inkscape:window-y="119"
   inkscape:window-maximized="0"
   inkscape:current-layer="svg2" /><metadata
   id="metadata24"><rdf:RDF><cc:Work
       rdf:about=""><dc:format>image/svg+xml</dc:format><dc:type
         rdf:resource="http://purl.org/dc/dcmitype/StillImage" /><dc:title /></cc:Work></rdf:RDF></metadata><defs
   id="defs22">
	

		
		
		
		
		
		
	<filter
   id="filter3765"
   inkscape:menu-tooltip="In and out glow with a possible offset and colorizable flood"
   inkscape:menu="Shadows and Glows"
   inkscape:label="Cutout Glow"
   color-interpolation-filters="sRGB"><feOffset
     id="feOffset3767"
     dy="3"
     dx="3" /><feGaussianBlur
     id="feGaussianBlur3769"
     result="result8"
     stdDeviation="3" /><feFlood
     id="feFlood3771"
     flood-color="rgb(0,0,0)"
     flood-opacity="1"
     in="result8"
     result="result10" /><feComposite
     id="feComposite3773"
     in2="SourceGraphic"
     operator="in"
     in="result10"
     result="result9" /><feBlend
     id="feBlend3775"
     in2="result9"
     mode="normal"
     in="result8" /></filter><filter
   id="filter3969"
   inkscape:label="Drop shadow"
   width="1.5"
   height="1.5"
   x="-.25"
   y="-.25"><feGaussianBlur
     id="feGaussianBlur3971"
     in="SourceAlpha"
     stdDeviation="2"
     result="blur" /><feColorMatrix
     id="feColorMatrix3973"
     result="bluralpha"
     type="matrix"
     values="1 0 0 0 0 0 1 0 0 0 0 0 1 0 0 0 0 0 1 0 " /><feOffset
     id="feOffset3975"
     in="bluralpha"
     dx="1"
     dy="2"
     result="offsetBlur" /><feMerge
     id="feMerge3977"><feMergeNode
       id="feMergeNode3979"
       in="offsetBlur" /><feMergeNode
       id="feMergeNode3981"
       in="SourceGraphic" /></feMerge></filter><filter
   id="filter3011"
   inkscape:label="Drop shadow"
   width="1.5"
   height="1.5"
   x="-.25"
   y="-.25"><feGaussianBlur
     id="feGaussianBlur3013"
     in="SourceAlpha"
     stdDeviation="1"
     result="blur" /><feColorMatrix
     id="feColorMatrix3015"
     result="bluralpha"
     type="matrix"
     values="1 0 0 0 0 0 1 0 0 0 0 0 1 0 0 0 0 0 1 0 " /><feOffset
     id="feOffset3017"
     in="bluralpha"
     dx="1"
     dy="1"
     result="offsetBlur" /><feMerge
     id="feMerge3019"><feMergeNode
       id="feMergeNode3021"
       in="offsetBlur" /><feMergeNode
       id="feMergeNode3023"
       in="SourceGraphic" /></feMerge></filter></defs>
<g
   id="Layer_1">
</g>
<path
   d="m 29.481703,12.204667 v 11.981479 q 0,0.995938 -0.709232,1.705161 -0.709231,0.709242 -1.705174,0.709242 H 4.8547776 q -0.9959415,0 -1.705173,-0.709242 Q 2.4403734,25.182084 2.4403734,24.186146 V 12.204667 q 0.6639613,0.739416 1.5240928,1.312828 5.4625895,3.712136 7.4997438,5.206064 0.860131,0.633779 1.395827,0.98839 0.535696,0.354611 1.426008,0.72432 0.890311,0.369708 1.659903,0.369708 h 0.0151 0.0151 q 0.769592,0 1.659903,-0.369708 0.890313,-0.369709 1.426008,-0.72432 0.535697,-0.354611 1.395828,-0.98839 2.565304,-1.856088 7.514834,-5.206064 0.860131,-0.588509 1.509001,-1.312828 z"
   id="path2987"
   style="fill:#000080;filter:url(#filter3969)"
   inkscape:connector-curvature="0" /><path
   d="m 29.481703,7.7681924 q 0,1.1921151 -0.739412,2.2785936 -0.739411,1.086479 -1.840983,1.856068 -5.673851,3.938505 -7.062133,4.90427 -0.150906,0.105637 -0.641325,0.460248 -0.490427,0.354611 -0.814863,0.573413 -0.324434,0.218801 -0.784681,0.490421 -0.460246,0.27162 -0.867677,0.407429 -0.40743,0.13579 -0.754501,0.13579 h -0.0151 -0.0151 q -0.347071,0 -0.754502,-0.13579 -0.40743,-0.135789 -0.867676,-0.407429 -0.460246,-0.27162 -0.784682,-0.490421 Q 13.21464,17.621983 12.724214,17.267372 12.233788,16.912741 12.082888,16.807124 10.709695,15.841359 8.1293002,14.053186 5.5489057,12.265013 5.0358446,11.902854 4.1002631,11.269075 3.2703116,10.159971 2.4403734,9.0508474 2.4403734,8.1001786 q 0,-1.1770385 0.6262363,-1.9617042 Q 3.6928458,5.3537887 4.8547776,5.3537887 H 27.067297 q 0.980853,0 1.697629,0.7092225 0.716777,0.7092424 0.716777,1.7051812 z"
   id="path6"
   style="fill:#ffff00;stroke:none;filter:url(#filter3969)"
   inkscape:connector-curvature="0" />
</svg>